<mxfile host="app.diagrams.net" agent="Mozilla/5.0 (Windows NT 10.0; Win64; x64) AppleWebKit/537.36 (KHTML, like Gecko) Chrome/131.0.0.0 Safari/537.36 Edg/131.0.0.0" version="24.8.4">
  <diagram name="Page-1" id="gJE2AnwYcfwifxKgHytU">
    <mxGraphModel dx="2026" dy="1146" grid="1" gridSize="10" guides="1" tooltips="1" connect="1" arrows="1" fold="1" page="1" pageScale="1" pageWidth="850" pageHeight="1100" math="0" shadow="0">
      <root>
        <mxCell id="0" />
        <mxCell id="1" parent="0" />
        <mxCell id="HyDi90Ld1Z15yoM46pRp-3" value="" style="edgeStyle=orthogonalEdgeStyle;rounded=0;orthogonalLoop=1;jettySize=auto;html=1;" edge="1" parent="1" source="HyDi90Ld1Z15yoM46pRp-1" target="HyDi90Ld1Z15yoM46pRp-2">
          <mxGeometry relative="1" as="geometry" />
        </mxCell>
        <mxCell id="HyDi90Ld1Z15yoM46pRp-5" value="" style="edgeStyle=orthogonalEdgeStyle;rounded=0;orthogonalLoop=1;jettySize=auto;html=1;exitX=0.5;exitY=1;exitDx=0;exitDy=0;" edge="1" parent="1" source="HyDi90Ld1Z15yoM46pRp-1" target="HyDi90Ld1Z15yoM46pRp-4">
          <mxGeometry relative="1" as="geometry" />
        </mxCell>
        <mxCell id="HyDi90Ld1Z15yoM46pRp-7" value="" style="edgeStyle=orthogonalEdgeStyle;rounded=0;orthogonalLoop=1;jettySize=auto;html=1;" edge="1" parent="1" target="HyDi90Ld1Z15yoM46pRp-6">
          <mxGeometry relative="1" as="geometry">
            <mxPoint x="450" y="590" as="sourcePoint" />
          </mxGeometry>
        </mxCell>
        <mxCell id="HyDi90Ld1Z15yoM46pRp-11" value="" style="edgeStyle=orthogonalEdgeStyle;rounded=0;orthogonalLoop=1;jettySize=auto;html=1;" edge="1" parent="1" source="HyDi90Ld1Z15yoM46pRp-1" target="HyDi90Ld1Z15yoM46pRp-8">
          <mxGeometry relative="1" as="geometry" />
        </mxCell>
        <mxCell id="HyDi90Ld1Z15yoM46pRp-1" value="Safeugards" style="rounded=0;whiteSpace=wrap;html=1;" vertex="1" parent="1">
          <mxGeometry x="380" y="490" width="120" height="60" as="geometry" />
        </mxCell>
        <mxCell id="HyDi90Ld1Z15yoM46pRp-9" value="" style="edgeStyle=orthogonalEdgeStyle;rounded=0;orthogonalLoop=1;jettySize=auto;html=1;entryX=0.5;entryY=1;entryDx=0;entryDy=0;" edge="1" parent="1" source="HyDi90Ld1Z15yoM46pRp-2" target="HyDi90Ld1Z15yoM46pRp-1">
          <mxGeometry relative="1" as="geometry" />
        </mxCell>
        <mxCell id="HyDi90Ld1Z15yoM46pRp-10" value="Safeguards" style="edgeLabel;html=1;align=center;verticalAlign=middle;resizable=0;points=[];" vertex="1" connectable="0" parent="HyDi90Ld1Z15yoM46pRp-9">
          <mxGeometry x="0.1333" relative="1" as="geometry">
            <mxPoint as="offset" />
          </mxGeometry>
        </mxCell>
        <mxCell id="HyDi90Ld1Z15yoM46pRp-2" value="Azure OpenAI Models&amp;nbsp;" style="rounded=0;whiteSpace=wrap;html=1;" vertex="1" parent="1">
          <mxGeometry x="380" y="630" width="120" height="60" as="geometry" />
        </mxCell>
        <mxCell id="HyDi90Ld1Z15yoM46pRp-4" value="Customer Sources&amp;nbsp;&lt;div&gt;[Azure AI Search - Bing Custom Search-&amp;nbsp;&lt;br&gt;Azure OpenAI Endpoints ]&lt;/div&gt;" style="whiteSpace=wrap;html=1;rounded=0;" vertex="1" parent="1">
          <mxGeometry x="520" y="630" width="210" height="60" as="geometry" />
        </mxCell>
        <mxCell id="HyDi90Ld1Z15yoM46pRp-6" value="Health AI Actions&lt;div&gt;[Clinical Coder ..]&lt;/div&gt;" style="rounded=0;whiteSpace=wrap;html=1;" vertex="1" parent="1">
          <mxGeometry x="230" y="630" width="120" height="60" as="geometry" />
        </mxCell>
        <mxCell id="HyDi90Ld1Z15yoM46pRp-8" value="Healthcare Agent Serivce" style="whiteSpace=wrap;html=1;rounded=0;" vertex="1" parent="1">
          <mxGeometry x="230" y="390" width="430" height="60" as="geometry" />
        </mxCell>
        <mxCell id="HyDi90Ld1Z15yoM46pRp-12" value="Healthcare Agent Serivce" style="whiteSpace=wrap;html=1;rounded=0;" vertex="1" parent="1">
          <mxGeometry x="110" y="840" width="430" height="60" as="geometry" />
        </mxCell>
      </root>
    </mxGraphModel>
  </diagram>
</mxfile>
